<svg width="1400" height="860" viewBox="0 0 1400 860" fill="none" xmlns="http://www.w3.org/2000/svg">
  <defs>
    <linearGradient id="bg" x1="0" y1="0" x2="1400" y2="860" gradientUnits="userSpaceOnUse">
      <stop offset="0" stop-color="#f7f9fc"/>
      <stop offset="1" stop-color="#edf2f7"/>
    </linearGradient>
    <filter id="glass" x="-40" y="-40" width="1480" height="940" filterUnits="userSpaceOnUse">
      <feGaussianBlur stdDeviation="8"/>
    </filter>
  </defs>
  <rect width="1400" height="860" fill="url(#bg)"/>
  <rect x="80" y="60" width="1240" height="740" rx="24" fill="white" fill-opacity="0.68" stroke="#dbe5f0"/>
  <rect x="80" y="60" width="1240" height="52" rx="24" fill="#f8fbff" stroke="#dbe5f0"/>
  <circle cx="112" cy="86" r="7" fill="#ff5f57"/><circle cx="136" cy="86" r="7" fill="#febc2e"/><circle cx="160" cy="86" r="7" fill="#28c840"/>
  <text x="700" y="92" text-anchor="middle" font-family="SF Pro Display, Arial" font-size="15" fill="#5b6b7e">Visual Explorer</text>
  <g stroke="#e7edf5">
    <path d="M120 150H1280"/><path d="M120 198H1280"/><path d="M120 246H1280"/><path d="M120 294H1280"/>
    <path d="M120 342H1280"/><path d="M120 390H1280"/><path d="M120 438H1280"/><path d="M120 486H1280"/><path d="M120 534H1280"/><path d="M120 582H1280"/><path d="M120 630H1280"/><path d="M120 678H1280"/><path d="M120 726H1280"/>
  </g>
  <g fill="#fff" stroke="#d8e2ee">
    <rect x="180" y="380" width="250" height="110" rx="14"/>
    <rect x="560" y="280" width="260" height="120" rx="14"/>
    <rect x="560" y="480" width="260" height="100" rx="14"/>
    <rect x="960" y="220" width="220" height="90" rx="14"/>
    <rect x="960" y="360" width="220" height="90" rx="14"/>
  </g>
  <g font-family="SF Pro Text, Arial" fill="#233446">
    <text x="205" y="415" font-size="28" font-weight="700">Payload</text>
    <text x="205" y="455" font-size="30" fill="#2f74c0">active:</text><text x="320" y="455" font-size="30">true</text>
    <text x="585" y="320" font-size="26" font-weight="700">user</text>
    <text x="585" y="355" font-size="28" fill="#2f74c0">id:</text><text x="640" y="355" font-size="28">7</text>
    <text x="585" y="387" font-size="28" fill="#2f74c0">name:</text><text x="685" y="387" font-size="28">"Ava"</text>
    <text x="585" y="520" font-size="26" font-weight="700">active</text>
    <text x="585" y="555" font-size="28">true</text>
    <text x="985" y="262" font-size="26" font-weight="700">id</text><text x="985" y="295" font-size="26">7</text>
    <text x="985" y="402" font-size="26" font-weight="700">name</text><text x="985" y="435" font-size="26">"Ava"</text>
  </g>
  <g stroke="#8da3bc" stroke-width="2" fill="none">
    <path d="M430 435 C500 435 500 340 560 340"/><path d="M430 435 C500 435 500 530 560 530"/>
    <path d="M820 340 C890 340 900 265 960 265"/><path d="M820 340 C890 340 900 405 960 405"/>
  </g>
</svg>
