<?xml version="1.0" encoding="UTF-8"?>
<svg width="256" height="256" viewBox="0 0 256 256" fill="none" xmlns="http://www.w3.org/2000/svg">
  <defs>
    <linearGradient id="bg" x1="44" y1="28" x2="220" y2="236" gradientUnits="userSpaceOnUse">
      <stop offset="0" stop-color="#7C3AED"/>
      <stop offset="0.55" stop-color="#0F172A"/>
      <stop offset="1" stop-color="#14B8A6"/>
    </linearGradient>
    <radialGradient id="glow" cx="0" cy="0" r="1" gradientUnits="userSpaceOnUse" gradientTransform="translate(200 56) rotate(135) scale(180)">
      <stop offset="0" stop-color="white" stop-opacity="0.20"/>
      <stop offset="1" stop-color="white" stop-opacity="0"/>
    </radialGradient>
    <filter id="softShadow" x="-30" y="-30" width="316" height="316" filterUnits="userSpaceOnUse" color-interpolation-filters="sRGB">
      <feGaussianBlur in="SourceAlpha" stdDeviation="10" result="blur"/>
      <feOffset dy="10" result="off"/>
      <feColorMatrix in="off" type="matrix" values="0 0 0 0 0  0 0 0 0 0  0 0 0 0 0  0 0 0 0.25 0" result="shadow"/>
      <feBlend mode="normal" in="shadow" in2="SourceGraphic" result="shape"/>
    </filter>
    <linearGradient id="glyph" x1="78" y1="80" x2="190" y2="196" gradientUnits="userSpaceOnUse">
      <stop offset="0" stop-color="#A78BFA"/>
      <stop offset="0.55" stop-color="#60A5FA"/>
      <stop offset="1" stop-color="#2DD4BF"/>
    </linearGradient>
    <linearGradient id="line" x1="44" y1="44" x2="212" y2="212" gradientUnits="userSpaceOnUse">
      <stop offset="0" stop-color="#C4B5FD" stop-opacity="0.9"/>
      <stop offset="1" stop-color="#5EEAD4" stop-opacity="0.9"/>
    </linearGradient>
  </defs>

  <!-- App icon base -->
  <g filter="url(#softShadow)">
    <rect x="28" y="28" width="200" height="200" rx="44" fill="url(#bg)"/>
    <rect x="28" y="28" width="200" height="200" rx="44" fill="url(#glow)"/>
    <rect x="30" y="30" width="196" height="196" rx="42" stroke="white" stroke-opacity="0.10" stroke-width="4"/>
  </g>

  <!-- Decorative UI glyphs -->
  <g opacity="0.95" stroke="url(#line)" stroke-width="6" stroke-linecap="round" stroke-linejoin="round">
    <!-- Calendar -->
    <rect x="60" y="62" width="26" height="24" rx="6"/>
    <path d="M60 72 H86" />
    <path d="M66 58 V66" />
    <path d="M80 58 V66" />

    <!-- @ -->
    <path d="M206 72
             C206 60 196 52 182 52
             C168 52 156 64 156 80
             C156 96 168 108 184 108
             C196 108 204 100 206 90" />
    <path d="M190 86
             C190 94 184 98 178 98
             C170 98 166 92 166 84
             C166 74 172 68 180 68
             C186 68 190 72 190 78
             V92" />

    <!-- Hash -->
    <path d="M54 164 H84" />
    <path d="M54 184 H84" />
    <path d="M64 154 L58 194" />
    <path d="M78 154 L72 194" />
  </g>

  <!-- Circuit lines & arrows -->
  <g opacity="0.55" stroke="url(#line)" stroke-width="4" stroke-linecap="round" stroke-linejoin="round">
    <path d="M104 60 H136" />
    <path d="M136 60 V84" />
    <path d="M136 84 H150" />
    <path d="M146 78 L156 84 L146 90" />

    <path d="M170 156 H206" />
    <path d="M170 156 V180 H154" />
    <circle cx="206" cy="156" r="5" fill="none"/>

    <path d="M120 206 H160" />
    <path d="M120 206 V186 H108" />
    <circle cx="160" cy="206" r="6" fill="none"/>
  </g>

  <!-- Central mark (stylized M) -->
  <path d="M84 184
           V84
           H104
           L128 132
           L152 84
           H172
           V184
           H154
           V124
           L136 160
           H120
           L102 124
           V184
           H84
           Z"
        fill="url(#glyph)"/>

  <!-- Small nodes -->
  <g opacity="0.6" stroke="url(#line)" stroke-width="4" stroke-linecap="round">
    <circle cx="206" cy="104" r="6" fill="none"/>
    <path d="M190 104 H200" />
    <circle cx="56" cy="206" r="6" fill="none"/>
    <path d="M66 206 H80" />
  </g>
</svg>
