<?xml version="1.0" encoding="UTF-8"?>
<svg width="256" height="256" viewBox="0 0 256 256" fill="none" xmlns="http://www.w3.org/2000/svg">
  <defs>
    <linearGradient id="forge-bg" x1="30" y1="26" x2="228" y2="232" gradientUnits="userSpaceOnUse">
      <stop offset="0" stop-color="#111827"/>
      <stop offset="0.44" stop-color="#1F2937"/>
      <stop offset="1" stop-color="#0F172A"/>
    </linearGradient>
    <linearGradient id="forge-accent" x1="58" y1="54" x2="196" y2="212" gradientUnits="userSpaceOnUse">
      <stop offset="0" stop-color="#F59E0B"/>
      <stop offset="0.52" stop-color="#F97316"/>
      <stop offset="1" stop-color="#EF4444"/>
    </linearGradient>
    <linearGradient id="forge-metal" x1="76" y1="74" x2="174" y2="182" gradientUnits="userSpaceOnUse">
      <stop offset="0" stop-color="#FDE68A"/>
      <stop offset="1" stop-color="#EA580C"/>
    </linearGradient>
    <filter id="forge-shadow" x="14" y="14" width="228" height="228" filterUnits="userSpaceOnUse" color-interpolation-filters="sRGB">
      <feGaussianBlur in="SourceAlpha" stdDeviation="8"/>
      <feOffset dy="8"/>
      <feColorMatrix type="matrix" values="0 0 0 0 0.16 0 0 0 0 0.08 0 0 0 0 0.03 0 0 0 0.4 0"/>
      <feBlend in2="SourceGraphic" mode="normal"/>
    </filter>
  </defs>

  <g filter="url(#forge-shadow)">
    <rect x="24" y="24" width="208" height="208" rx="46" fill="url(#forge-bg)"/>
    <rect x="26" y="26" width="204" height="204" rx="44" stroke="#FECACA" stroke-opacity="0.24" stroke-width="2"/>
  </g>

  <path d="M70 78H186" stroke="url(#forge-accent)" stroke-width="8" stroke-linecap="round"/>
  <path d="M70 178H186" stroke="url(#forge-accent)" stroke-width="8" stroke-linecap="round"/>
  <path d="M94 70V186" stroke="url(#forge-accent)" stroke-width="8" stroke-linecap="round"/>
  <path d="M162 70V186" stroke="url(#forge-accent)" stroke-width="8" stroke-linecap="round"/>

  <rect x="82" y="82" width="92" height="92" rx="20" fill="#3F1D0B" stroke="#FDBA74" stroke-width="3"/>
  <path d="M100 100H136C149 100 158 108 158 120C158 132 149 140 136 140H116V156H100V100ZM116 114V126H134C138 126 141 124 141 120C141 116 138 114 134 114H116Z" fill="url(#forge-metal)"/>

  <g opacity="0.85">
    <circle cx="62" cy="106" r="8" fill="#F59E0B"/>
    <circle cx="194" cy="150" r="8" fill="#EF4444"/>
    <path d="M62 106H86" stroke="#FDBA74" stroke-width="4" stroke-linecap="round"/>
    <path d="M170 150H194" stroke="#FB7185" stroke-width="4" stroke-linecap="round"/>
  </g>
</svg>
