<?xml version="1.0" encoding="UTF-8"?>
<svg width="256" height="256" viewBox="0 0 256 256" fill="none" xmlns="http://www.w3.org/2000/svg">
  <defs>
    <linearGradient id="bg" x1="44" y1="28" x2="220" y2="236" gradientUnits="userSpaceOnUse">
      <stop offset="0" stop-color="#7C3AED"/>
      <stop offset="0.55" stop-color="#1E293B"/>
      <stop offset="1" stop-color="#14B8A6"/>
    </linearGradient>
    <radialGradient id="glow" cx="0" cy="0" r="1" gradientUnits="userSpaceOnUse" gradientTransform="translate(200 56) rotate(135) scale(180)">
      <stop offset="0" stop-color="white" stop-opacity="0.22"/>
      <stop offset="1" stop-color="white" stop-opacity="0"/>
    </radialGradient>
    <filter id="softShadow" x="-30" y="-30" width="316" height="316" filterUnits="userSpaceOnUse" color-interpolation-filters="sRGB">
      <feGaussianBlur in="SourceAlpha" stdDeviation="10" result="blur"/>
      <feOffset dy="10" result="off"/>
      <feColorMatrix in="off" type="matrix" values="0 0 0 0 0  0 0 0 0 0  0 0 0 0 0  0 0 0 0.25 0" result="shadow"/>
      <feBlend mode="normal" in="shadow" in2="SourceGraphic" result="shape"/>
    </filter>
    <linearGradient id="glyph" x1="94" y1="86" x2="176" y2="190" gradientUnits="userSpaceOnUse">
      <stop offset="0" stop-color="#A78BFA"/>
      <stop offset="0.55" stop-color="#60A5FA"/>
      <stop offset="1" stop-color="#2DD4BF"/>
    </linearGradient>
    <linearGradient id="line" x1="44" y1="44" x2="212" y2="212" gradientUnits="userSpaceOnUse">
      <stop offset="0" stop-color="#C4B5FD" stop-opacity="0.9"/>
      <stop offset="1" stop-color="#5EEAD4" stop-opacity="0.9"/>
    </linearGradient>
  </defs>

  <!-- App icon base -->
  <g filter="url(#softShadow)">
    <rect x="28" y="28" width="200" height="200" rx="44" fill="url(#bg)"/>
    <rect x="28" y="28" width="200" height="200" rx="44" fill="url(#glow)"/>
    <rect x="30" y="30" width="196" height="196" rx="42" stroke="white" stroke-opacity="0.10" stroke-width="4"/>
  </g>

  <!-- Top glyphs -->
  <g opacity="0.95" stroke="url(#line)" stroke-width="6" stroke-linecap="round" stroke-linejoin="round">
    <!-- </> -->
    <path d="M62 76 L52 86 L62 96" />
    <path d="M82 72 L72 100" />
    <path d="M92 76 L102 86 L92 96" />

    <!-- Square -->
    <rect x="118" y="70" width="34" height="34" rx="6"/>

    <!-- Triangle -->
    <path d="M184 104 L206 70 L228 104 Z" />
  </g>

  <!-- Decorative circuit lines -->
  <g opacity="0.55" stroke="url(#line)" stroke-width="4" stroke-linecap="round" stroke-linejoin="round">
    <path d="M60 140 H96" />
    <path d="M96 140 V120 H112" />
    <circle cx="60" cy="140" r="10" fill="none" />
    <path d="M168 132 H208" />
    <path d="M168 132 V150 H152" />
    <circle cx="208" cy="132" r="5" fill="none" />
    <path d="M76 186 H110" />
    <path d="M110 186 V204 H132" />
    <circle cx="76" cy="186" r="5" fill="none" />
  </g>

  <!-- Central mark (stylized P) -->
  <path d="M112 84
           H140
           C158 84 170 95 170 112
           C170 129 158 140 140 140
           H132
           V188
           H112
           V84
           Z
           M132 104
           V120
           H140
           C147 120 150 117 150 112
           C150 107 147 104 140 104
           H132
           Z"
        fill="url(#glyph)"/>

  <!-- Small nodes -->
  <g opacity="0.6" stroke="url(#line)" stroke-width="4" stroke-linecap="round">
    <path d="M198 174 h12" />
    <circle cx="188" cy="174" r="7" fill="none"/>
    <path d="M54 206 h14" />
    <circle cx="74" cy="206" r="6" fill="none"/>
  </g>
</svg>
